<?xml version="1.0" encoding="UTF-8" standalone="no"?>
<svg
   xmlns:dc="http://purl.org/dc/elements/1.1/"
   xmlns:cc="http://creativecommons.org/ns#"
   xmlns:rdf="http://www.w3.org/1999/02/22-rdf-syntax-ns#"
   xmlns:svg="http://www.w3.org/2000/svg"
   xmlns="http://www.w3.org/2000/svg"
   id="svg8"
   version="1.1"
   viewBox="0 0 135.46666 135.46667"
   height="512"
   width="512">
  <defs
     id="defs2" />
  <metadata
     id="metadata5">
    <rdf:RDF>
      <cc:Work
         rdf:about="">
        <dc:format>image/svg+xml</dc:format>
        <dc:type
           rdf:resource="http://purl.org/dc/dcmitype/StillImage" />
        <dc:title></dc:title>
      </cc:Work>
    </rdf:RDF>
  </metadata>
  <g
     transform="translate(0,-161.53331)"
     id="layer1">
    <text
       id="text28"
       y="282.1225"
       x="31.576513"
       style="font-style:normal;font-weight:normal;font-size:24.02633667px;line-height:1.25;font-family:sans-serif;letter-spacing:0px;word-spacing:0px;fill:#333333;fill-opacity:1;stroke:none;stroke-width:0.60065836"
       xml:space="preserve"><tspan
         style="font-style:normal;font-variant:normal;font-weight:bold;font-stretch:normal;font-family:Roboto;-inkscape-font-specification:'Roboto Bold';fill:#333333;fill-opacity:1;stroke-width:0.60065836"
         y="282.1225"
         x="31.576513"
         id="tspan26">necxxt</tspan></text>
    <path
       id="path21"
       d="m 32.80833,194.34165 v 69.84999 h 2.38125 4.252454 28.291296 32.54376 2.38125 V 194.34165 H 100.27709 67.73333 39.442034 35.18958 Z m 8.201051,6.08541 4.564061,0.0202 4.564062,0.0202 2.248959,2.54093 c 1.23693,1.39759 3.738614,4.15669 5.558833,6.13141 1.820221,1.97472 4.921251,5.37642 6.891569,7.55923 11.85387,13.13226 15.52707,17.21294 16.049151,17.82939 l 0.58601,0.69143 0.0098,-11.04634 0.01032,-11.04636 -5.622396,-0.0145 -5.622395,-0.0139 -5.55625,-6.1159 c -3.055919,-3.36375 -5.595578,-6.21521 -5.644078,-6.33605 -0.0485,-0.12083 7.899312,-0.21963 17.661971,-0.21963 h 17.750339 l -0.0672,28.90573 -0.0677,28.90572 -4.380612,0.0724 -4.381129,0.0723 -5.951062,-6.55462 c -3.273128,-3.60503 -9.568248,-10.54325 -13.989327,-15.4182 -4.421069,-4.87493 -8.850024,-9.74906 -9.842293,-10.83137 l -1.804541,-1.96784 v 10.89752 10.89752 h 5.524727 5.524212 l 1.156517,1.279 c 0.636011,0.70326 3.18007,3.513 5.653919,6.24406 2.473851,2.73105 4.537784,5.07235 4.586285,5.2033 l -0.0011,5.3e-4 c 0.101571,0.27419 -34.959607,0.33539 -35.233507,0.0615 -0.097,-0.097 -0.176734,-13.13434 -0.176734,-28.97187 z"
       style="fill:#333333;fill-opacity:1;stroke-width:0.26458338" />
  </g>
</svg>
